<svg viewBox="0 0 672 744" fill="none" xmlns="http://www.w3.org/2000/svg"><path fill-rule="evenodd" clip-rule="evenodd" d="M364.308 76.387c19.518 3.485 39.321 7.021 60.452 13.763l1.256.41c29.986 9.755 187.391 60.968 234.479 247.109 47.797 188.918-69.954 351.435-242.087 394.982-172.133 43.546-361.4-52.673-407.926-236.587-46.527-183.913 75.56-305.827 98.574-326.046 6.67-6.179 12.968-11.703 19.104-17.085 18.772-16.465 36.036-31.607 57.862-60.146C199.506 74.212 209.545 50.46 202.073 0c33.492 24.24 73.233 52.097 99.164 61.468 21.553 7.505 42.148 11.183 63.071 14.919zM179.319 571.596c-13.294-55.588 25.649-120.815 91.164-138.369 48.631-12.75 95.755 5.34 134.916 20.373 27.981 10.741 51.897 19.922 69.392 15.176 17.899-4.914 39.709-29.497 61.24-53.765 21.197-23.893 42.123-47.48 58.779-51.693 35.704-9.032 55.071 25.512 60.657 47.61 5.593 22.099 8.55 63.818-2.065 93.042-10.621 29.223-19.424 41.332-39.566 44.894-12.189 2.035-34.161-11.281-57.529-25.444-26.956-16.336-55.768-33.799-73.562-30.118-18.523 4.009-42.066 27.712-68.669 54.494-33.722 33.95-72.359 72.849-111.916 82.856-42.842 10.839-57.309 7.641-73.97 2.016-25.209-9.553-41.653-29.673-48.901-61.192l.03.12zm333.12-25.875c-9.952-3.573-22.29-1.218-33.722 1.674l.04-.01c-1.33.336-2.594.645-3.808.942-9.226 2.259-15.527 3.801-25.115 10.932-10.642 7.916-20.304 22.142-26.54 31.324l-.358.527c-6.22 9.156-6.096 15.386-.405 19.825 5.662 4.418 9.048-.167 18.578-13.07l.135-.184a409.454 409.454 0 0 0 2.441-3.348l.004-.005.001-.001c8.327-11.498 15.062-20.797 37.874-26.568 24.445-6.184 31.247 1.346 38.462 9.333l.269.297.216.239.074.081c7.338 8.106 8.422 9.303 12.662 5.216a10.335 10.335 0 0 0 4.742-7.358 10.312 10.312 0 0 0-2.61-8.345l-.058-.079c-4.662-6.42-12.97-17.863-22.882-21.422zm-45.073 113.036c-45.731 11.569-69.502 7.701-86.669-.096l.1-.11c-.356-.124-.646-.234-.895-.328l-.002-.001c-1.48-.561-1.48-.561-5.154.368a17.15 17.15 0 0 0-9.455 7.675 10.562 10.562 0 0 0 .52 12.175 10.565 10.565 0 0 0 3.268 2.797c38.631 20.598 90.234 5.243 127.923-8.083a160.018 160.018 0 0 0 67.399-48.912 11.142 11.142 0 0 0-.15-12.741c-1.452-2.699-5.414-6.213-10.576.375-11.697 14.332-40.578 35.312-86.309 46.881z" fill="url(#a)"/><defs><linearGradient id="a" x1="797.5" y1="-557.5" x2="-147.5" y2="-31" gradientUnits="userSpaceOnUse"><stop/><stop offset="1" stop-color="#fff" stop-opacity="0"/></linearGradient></defs></svg>