<svg xmlns="http://www.w3.org/2000/svg" width="81" height="81" fill="none"><path d="M7 16.276h47V13a5 5 0 0 0-5-5H11a5 5 0 0 0-5 5v33.035a5 5 0 0 0 5 5h38a5 5 0 0 0 5-5V43.5" style="stroke:#f14d34;stroke-width:2.5"/><path d="M26 51.517v16.517a5 5 0 0 0 5 5h38a5 5 0 0 0 5-5V38.277m0 0V35a5 5 0 0 0-5-5h-7m12 8.276H64" style="stroke:#f14d34;stroke-width:2.5"/><path d="M10.457 12.552h2.057M14.571 12.552h2.057M18.686 12.552h2.057M13 36h15M13 40h8" stroke="#F14D34" stroke-width="2.5"/><rect x="14.25" y="23.25" width="12.5" height="8.5" rx="3.75" stroke="#F14D34" stroke-width="2.5"/><path d="M54 16.276c-.906 0-1.647.787-1.647 1.75 0 .052.01.095.014.143-5.747.958-6.58 7.036-7.262 12.02-.74 5.425-1.317 8.837-5.105 8.837v1.75h9.963c.373 2.017 2.014 3.5 4.037 3.5s3.664-1.483 4.037-3.5H68v-1.75c-3.788 0-4.366-3.412-5.107-8.837-.68-4.984-1.514-11.06-7.26-12.02.004-.048.014-.091.014-.143 0-.963-.741-1.75-1.647-1.75zm0 3.5c5.847 0 6.505 5.162 7.246 10.587.43 3.198.905 6.646 2.664 8.663H44.09c1.759-2.017 2.232-5.465 2.662-8.663.741-5.425 1.4-10.587 7.248-10.587zm-2.327 21h4.653c-.329 1.033-1.219 1.75-2.326 1.75s-1.999-.717-2.327-1.75z" style="fill:#050c33;fill-opacity:1;stroke-width:.84887469;stroke:#050c33;stroke-opacity:1"/><path d="M60.235 51.884c-.51 0-.941.366-1.026.868l-.203 1.194a6.499 6.499 0 0 0-1.142.481l-.965-.695a1.031 1.031 0 0 0-.604-.193c-.278 0-.541.108-.734.305l-1.05 1.047a1.04 1.04 0 0 0-.113 1.338l.702.987a6.508 6.508 0 0 0-.467 1.148l-1.166.197a1.037 1.037 0 0 0-.867 1.025v1.479c0 .509.365.94.867 1.025l1.194.204c.123.393.285.776.482 1.141l-.692.963c-.295.414-.25.98.112 1.338l1.047 1.046a1.03 1.03 0 0 0 1.334.113l.987-.703c.355.186.727.337 1.11.457l.197 1.18c.084.502.516.867 1.025.867h1.482c.51 0 .941-.365 1.026-.867l.2-1.18c.397-.123.78-.281 1.145-.474l.973.695c.175.126.386.193.604.193.277 0 .537-.109.734-.305l1.046-1.047a1.04 1.04 0 0 0 .113-1.338l-.696-.976c.193-.37.355-.752.474-1.145l1.18-.197c.503-.084.868-.516.868-1.025V59.55a1.025 1.025 0 0 0-.86-1.025l-1.18-.2a6.663 6.663 0 0 0-.475-1.146l.696-.972c.295-.415.249-.98-.113-1.338l-1.046-1.047a1.03 1.03 0 0 0-1.335-.112l-.976.695c-.38-.2-.776-.365-1.187-.488l-.197-1.166a1.037 1.037 0 0 0-1.025-.868zm.007.945h1.479c.045 0 .084.032.09.077l.247 1.465a.475.475 0 0 0 .351.383 5.7 5.7 0 0 1 1.507.618.475.475 0 0 0 .516-.021l1.211-.871a.104.104 0 0 1 .053-.018c.014 0 .042.004.067.028l1.046 1.047c.032.031.036.08.011.12l-.868 1.218a.475.475 0 0 0-.02.516c.273.46.477.955.61 1.472.046.182.197.32.38.347l1.475.25a.09.09 0 0 1 .077.091v1.479h-.003a.091.091 0 0 1-.078.09l-1.475.247a.471.471 0 0 0-.379.347 5.622 5.622 0 0 1-.611 1.472.475.475 0 0 0 .021.516l.867 1.222a.096.096 0 0 1-.01.12l-1.047 1.046a.089.089 0 0 1-.066.028.086.086 0 0 1-.053-.017l-1.219-.868a.475.475 0 0 0-.516-.02c-.46.273-.955.477-1.471.61a.466.466 0 0 0-.348.38l-.25 1.475a.09.09 0 0 1-.09.077h-1.48a.091.091 0 0 1-.09-.077l-.247-1.475a.471.471 0 0 0-.347-.38 5.838 5.838 0 0 1-1.44-.59.486.486 0 0 0-.239-.063.463.463 0 0 0-.274.088l-1.23.874a.104.104 0 0 1-.052.018.093.093 0 0 1-.066-.028l-1.047-1.047a.095.095 0 0 1-.01-.12l.863-1.21a.48.48 0 0 0 .021-.52 5.569 5.569 0 0 1-.618-1.469.481.481 0 0 0-.379-.347l-1.486-.253a.091.091 0 0 1-.077-.091v-1.479a.09.09 0 0 1 .077-.091l1.465-.246a.475.475 0 0 0 .383-.351c.13-.517.33-1.015.6-1.475a.469.469 0 0 0-.024-.513l-.875-1.23a.096.096 0 0 1 .01-.119l1.047-1.046a.09.09 0 0 1 .067-.028c.021 0 .039.007.053.017l1.211.864a.48.48 0 0 0 .52.021 5.57 5.57 0 0 1 1.468-.618.481.481 0 0 0 .348-.38l.253-1.485a.091.091 0 0 1 .091-.077zm.766 3.832a3.63 3.63 0 0 0-3.628 3.628 3.63 3.63 0 0 0 3.628 3.627 3.63 3.63 0 0 0 3.628-3.627 3.63 3.63 0 0 0-3.628-3.628zm0 .948a2.681 2.681 0 0 1 2.68 2.68 2.681 2.681 0 0 1-2.68 2.68 2.681 2.681 0 0 1-2.68-2.68 2.681 2.681 0 0 1 2.68-2.68z" style="fill:#f14d34;fill-opacity:1;stroke:#f14d34;stroke-width:.58682096;stroke-opacity:1"/></svg>