<svg xmlns="http://www.w3.org/2000/svg" width="81" height="81" fill="none"><path d="M3 59.82V64a5 5 0 0 0 5 5h39.32M77 44.889V41.82m-74 18V20a5 5 0 0 1 5-5h6M3 59.82h43.5m30.5-18V20a5 5 0 0 0-5-5H53.5M45 53H19a5 5 0 0 1-5-5V12a5 5 0 0 1 5-5h29a5 5 0 0 1 5 5v33.5" style="stroke:#f14d34;stroke-width:2.5"/><path d="M30.25 20v-5c0-.967.783-1.75 1.75-1.75h10c.967 0 1.75.783 1.75 1.75v5c0 .967-.808 1.965-1.75 1.75H32A1.75 1.75 0 0 1 30.25 20zM32 69v7h16v-7" style="stroke:#f14d34;stroke-width:2.5"/><path d="M57 76H23" stroke="#F14D34" stroke-width="2.5"/><path d="M18.5 14h7" stroke="#F14D34" stroke-width="3"/><path d="M18.5 19h4" stroke="#F14D34" stroke-width="3" style="stroke:#050c33;stroke-opacity:1"/><path d="M18.5 27h29.8M18.5 32h26M18.5 40h31M18.5 45h20" style="stroke:#f14d34;stroke-width:3"/><path d="M49.322 44.295c-2.562 0-4.662 2.1-4.662 4.661v16.756c0 2.562 2.1 4.662 4.662 4.662h26.457c2.562 0 4.661-2.1 4.661-4.662V48.956c.01-2.572-2.1-4.661-4.661-4.661zm-.053 2.918h26.972c.924 0 1.69.756 1.69 1.69v.641H47.579v-.64c0-.924.756-1.69 1.69-1.69zm-1.69 6.772H77.93v11.79c0 .924-.756 1.69-1.69 1.69H49.269c-.924 0-1.69-.755-1.69-1.69zm4.777 5.617a3.024 3.024 0 0 0 0 6.047c.913 0 1.743-.41 2.289-1.06a3.002 3.002 0 0 0 2.288 1.06 3.024 3.024 0 0 0 0-6.047c-.913 0-1.742.41-2.288 1.06a3.002 3.002 0 0 0-2.29-1.06z" style="fill:#050c33;fill-opacity:1;stroke:#050c33;stroke-width:.10498901;stroke-opacity:1"/></svg>