<svg xmlns="http://www.w3.org/2000/svg" width="81" height="81" fill="none"><path d="M36.597 67H10a5 5 0 0 1-5-5v-3.5M71.111 67A3.889 3.889 0 0 0 75 63.111V58.5m-70 0V22a5 5 0 0 1 5-5h60a5 5 0 0 1 5 5v36.5m-70 0h31.597M75 58.5h-3.889" stroke="#F14D34" stroke-width="2.5"/><path d="M41.757 25.102h25M41.757 29.602h25M41.757 33.602h25" style="stroke:#f14d34;stroke-width:2.5"/><path d="M11 44h21M11 52h21M11 48h14M32 67v9M37 76H23" stroke="#F14D34" stroke-width="2.5"/><rect x="37.551" y="38.675" width="32.199" height="36.075" rx="3.75" style="stroke:#f14d34;stroke-width:2.5"/><path style="stroke:#f14d34;stroke-width:2.5" d="M11.041 25.483h25M11.041 29.983h25M11.041 33.983h25M11.041 37.983h10M41.742 44.53h25M41.742 49.03h19M41.742 53.03h15M41.5 59.577h19M41.5 64.077h15"/><rect x="60.243" y="51.735" width="18.001" height="27.383" rx="3.75" style="stroke:#050c33;stroke-width:2.5;fill:#fff;fill-opacity:1;stroke-opacity:1"/><path d="M64.45 57.26h10" style="stroke:#050c33;stroke-width:2.5;stroke-opacity:1"/><path d="M41.5 68.077h11" style="stroke:#f14d34;stroke-width:2.5"/><path d="M64.41 61.585h10M64.289 65.953h10" style="stroke:#050c33;stroke-width:2.5;stroke-opacity:1"/></svg>